<svg xmlns="http://www.w3.org/2000/svg" viewBox="0 0 491 496"><title>bracket_quad</title><g id="Tier_1" data-name="Tier 1"><rect x="3" width="100" height="6"/><circle cx="3" cy="3" r="3"/><rect x="3" y="26" width="100" height="6"/><circle cx="3" cy="29" r="3"/><rect x="3" y="64" width="100" height="6"/><circle cx="3" cy="67" r="3"/><rect x="3" y="90" width="100" height="6"/><circle cx="3" cy="93" r="3"/><rect x="3" y="128" width="100" height="6"/><circle cx="3" cy="131" r="3"/><rect x="3" y="154" width="100" height="6"/><circle cx="3" cy="157" r="3"/><rect x="3" y="192" width="100" height="6"/><circle cx="3" cy="195" r="3"/><rect x="3" y="218" width="100" height="6"/><circle cx="3" cy="221" r="3"/><rect x="3" y="256" width="100" height="6"/><circle cx="3" cy="259" r="3"/><rect x="3" y="282" width="100" height="6"/><circle cx="3" cy="285" r="3"/><rect x="3" y="320" width="100" height="6"/><circle cx="3" cy="323" r="3"/><rect x="3" y="346" width="100" height="6"/><circle cx="3" cy="349" r="3"/><rect x="3" y="384" width="100" height="6"/><circle cx="3" cy="387" r="3"/><rect x="3" y="410" width="100" height="6"/><circle cx="3" cy="413" r="3"/><rect x="3" y="448" width="100" height="6"/><circle cx="3" cy="451" r="3"/><rect x="3" y="474" width="100" height="6"/><circle cx="3" cy="477" r="3"/></g><g id="Tier_1_Down" data-name="Tier 1 Down"><rect x="97" y="16" width="6" height="13"/><circle cx="100" cy="29" r="3"/><rect x="97" y="80" width="6" height="13"/><circle cx="100" cy="93" r="3"/><rect x="97" y="144" width="6" height="13"/><circle cx="100" cy="157" r="3"/><rect x="97" y="208" width="6" height="13"/><circle cx="100" cy="221" r="3"/><rect x="97" y="272" width="6" height="13"/><circle cx="100" cy="285" r="3"/><rect x="97" y="336" width="6" height="13"/><circle cx="100" cy="349" r="3"/><rect x="97" y="400" width="6" height="13"/><circle cx="100" cy="413" r="3"/><rect x="97" y="464" width="6" height="13"/><circle cx="100" cy="477" r="3"/></g><g id="Tier_1_Up" data-name="Tier 1 Up"><rect x="97" y="3" width="6" height="13" transform="translate(200 19) rotate(-180)"/><circle cx="100" cy="3" r="3"/><rect x="97" y="67" width="6" height="13" transform="translate(200 147) rotate(-180)"/><circle cx="100" cy="67" r="3"/><rect x="97" y="131" width="6" height="13" transform="translate(200 275) rotate(-180)"/><circle cx="100" cy="131" r="3"/><rect x="97" y="195" width="6" height="13" transform="translate(200 403) rotate(-180)"/><circle cx="100" cy="195" r="3"/><rect x="97" y="259" width="6" height="13" transform="translate(200 531) rotate(-180)"/><circle cx="100" cy="259" r="3"/><rect x="97" y="323" width="6" height="13" transform="translate(200 659) rotate(-180)"/><circle cx="100" cy="323" r="3"/><rect x="97" y="387" width="6" height="13" transform="translate(200 787) rotate(-180)"/><circle cx="100" cy="387" r="3"/><rect x="97" y="451" width="6" height="13" transform="translate(200 915) rotate(-180)"/><circle cx="100" cy="451" r="3"/></g><g id="Tier_2" data-name="Tier 2"><rect x="100" y="13" width="100" height="6"/><circle cx="100" cy="16" r="3"/><rect x="100" y="77" width="100" height="6"/><circle cx="100" cy="80" r="3"/><rect x="100" y="141" width="100" height="6"/><circle cx="100" cy="144" r="3"/><rect x="100" y="205" width="100" height="6"/><circle cx="100" cy="208" r="3"/><rect x="100" y="269" width="100" height="6"/><circle cx="100" cy="272" r="3"/><rect x="100" y="333" width="100" height="6"/><circle cx="100" cy="336" r="3"/><rect x="100" y="397" width="100" height="6"/><circle cx="100" cy="400" r="3"/><rect x="100" y="461" width="100" height="6"/><circle cx="100" cy="464" r="3"/></g><g id="Tier_2_Down" data-name="Tier 2 Down"><rect x="194" y="48" width="6" height="32"/><circle cx="197" cy="80" r="3"/><rect x="194" y="176" width="6" height="32"/><circle cx="197" cy="208" r="3"/><rect x="194" y="304" width="6" height="32"/><circle cx="197" cy="336" r="3"/><rect x="194" y="432" width="6" height="32"/><circle cx="197" cy="464" r="3"/></g><g id="Tier_2_Up" data-name="Tier 2 Up"><rect x="194" y="16" width="6" height="32" transform="translate(394 64) rotate(-180)"/><circle cx="197" cy="16" r="3"/><rect x="194" y="144" width="6" height="32" transform="translate(394 320) rotate(-180)"/><circle cx="197" cy="144" r="3"/><rect x="194" y="272" width="6" height="32" transform="translate(394 576) rotate(-180)"/><circle cx="197" cy="272" r="3"/><rect x="194" y="400" width="6" height="32" transform="translate(394 832) rotate(-180)"/><circle cx="197" cy="400" r="3"/></g><g id="Tier_3" data-name="Tier 3"><rect x="197" y="45" width="100" height="6"/><circle cx="197" cy="48" r="3"/><rect x="197" y="173" width="100" height="6"/><circle cx="197" cy="176" r="3"/><rect x="197" y="301" width="100" height="6"/><circle cx="197" cy="304" r="3"/><rect x="197" y="429" width="100" height="6"/><circle cx="197" cy="432" r="3"/></g><g id="Tier_3_Down" data-name="Tier 3 Down"><rect x="291" y="112" width="6" height="64"/><circle cx="294" cy="176" r="3"/><rect x="291" y="368" width="6" height="64"/><circle cx="294" cy="432" r="3"/></g><g id="Tier_3_Up" data-name="Tier 3 Up"><rect x="291" y="304" width="6" height="64" transform="translate(588 672) rotate(-180)"/><circle cx="294" cy="304" r="3"/><rect x="291" y="48" width="6" height="64" transform="translate(588 160) rotate(-180)"/><circle cx="294" cy="48" r="3"/></g><g id="Tier_4" data-name="Tier 4"><rect x="294" y="109" width="100" height="6"/><circle cx="294" cy="112" r="3"/><rect x="294" y="365" width="100" height="6"/><circle cx="294" cy="368" r="3"/></g><g id="Tier_4_Down" data-name="Tier 4 Down"><rect x="388" y="240" width="6" height="128"/><circle cx="391" cy="368" r="3"/></g><g id="Tier_4_Up" data-name="Tier 4 Up"><rect x="388" y="112" width="6" height="128" transform="translate(782 352) rotate(-180)"/><circle cx="391" cy="112" r="3"/></g><g id="Tier_5" data-name="Tier 5"><rect x="391" y="237" width="100" height="6"/><circle cx="391" cy="240" r="3"/></g><g id="Tier_5_Up" data-name="Tier 5 Up"><rect x="485" y="240" width="6" height="256" transform="translate(976 736) rotate(-180)"/><circle cx="488" cy="240" r="3"/></g></svg>